<svg width="774" height="585" viewBox="0 0 774 585" fill="none" xmlns="http://www.w3.org/2000/svg">
<g id="onlinePage 1">
<g id="laptop-case">
<path id="Vector" d="M740.697 558.418H32.7382C26.4425 558.418 20.4046 555.917 15.9528 551.466C11.501 547.014 9 540.976 9 534.68C265.635 504.854 517.447 504.854 764.435 534.68C764.435 540.976 761.934 547.014 757.483 551.466C753.031 555.917 746.993 558.418 740.697 558.418Z" fill="#707070"/>
<path id="Vector_2" d="M764.435 536.076L9 534.68L96.5523 387.363L96.9712 386.665V61.9952C96.9709 58.0544 97.7469 54.1522 99.2548 50.5113C100.763 46.8704 102.973 43.5622 105.76 40.7757C108.546 37.9891 111.854 35.7788 115.495 34.2708C119.136 32.7629 123.038 31.987 126.979 31.9873H642.267C646.208 31.987 650.11 32.7629 653.751 34.2708C657.392 35.7788 660.7 37.9891 663.487 40.7757C666.273 43.5623 668.484 46.8704 669.992 50.5113C671.499 54.1522 672.275 58.0545 672.275 61.9952V388.899L764.435 536.076Z" fill="white"/>
<path id="Vector_3" d="M129.718 407.61C128.917 407.612 128.133 407.842 127.459 408.274C126.785 408.706 126.248 409.322 125.912 410.049L98.9345 468.696C98.6408 469.334 98.5123 470.036 98.5609 470.737C98.6095 471.438 98.8336 472.115 99.2126 472.707C99.5915 473.298 100.113 473.785 100.73 474.122C101.346 474.459 102.037 474.636 102.74 474.636H670.064C670.778 474.636 671.48 474.454 672.104 474.106C672.728 473.758 673.252 473.257 673.627 472.649C674.003 472.042 674.217 471.348 674.249 470.635C674.28 469.922 674.13 469.212 673.81 468.573L644.486 409.926C644.14 409.229 643.606 408.642 642.944 408.233C642.282 407.824 641.519 407.608 640.74 407.611L129.718 407.61Z" fill="#919191"/>
<path id="Vector_4" d="M328.86 485.807C327.939 485.808 327.044 486.112 326.313 486.672C325.582 487.233 325.056 488.018 324.815 488.907L318.048 514.041C317.881 514.662 317.859 515.313 317.983 515.944C318.108 516.575 318.377 517.168 318.768 517.679C319.159 518.189 319.662 518.603 320.239 518.887C320.815 519.172 321.45 519.32 322.093 519.32H450.787C451.455 519.32 452.113 519.16 452.707 518.854C453.3 518.548 453.812 518.105 454.199 517.56C454.586 517.016 454.838 516.388 454.933 515.727C455.028 515.066 454.963 514.391 454.744 513.76L446.044 488.626C445.759 487.803 445.225 487.089 444.515 486.584C443.806 486.079 442.957 485.807 442.086 485.807L328.86 485.807Z" fill="#727272"/>
<path id="Vector_5" d="M672.275 381.778V387.363H96.5518L96.9856 386.665V381.778H672.275Z" fill="#2F2E41"/>
<path id="Vector_6" d="M601.213 394.572C600.989 394.573 600.771 394.647 600.593 394.783C600.415 394.92 600.287 395.111 600.228 395.327L598.58 401.448C598.54 401.599 598.534 401.758 598.565 401.911C598.595 402.065 598.66 402.209 598.756 402.334C598.851 402.458 598.973 402.559 599.114 402.628C599.254 402.697 599.409 402.733 599.565 402.733H630.904C631.067 402.733 631.227 402.694 631.372 402.62C631.516 402.545 631.641 402.437 631.735 402.305C631.829 402.172 631.891 402.019 631.914 401.858C631.937 401.697 631.921 401.533 631.868 401.379L629.749 395.259C629.68 395.058 629.55 394.885 629.377 394.762C629.204 394.639 628.997 394.572 628.785 394.572H601.213Z" fill="#414141"/>
<path id="Vector_7" d="M555.454 394.572C555.23 394.573 555.012 394.647 554.834 394.783C554.656 394.92 554.528 395.111 554.469 395.327L552.822 401.448C552.781 401.599 552.776 401.758 552.806 401.911C552.836 402.065 552.902 402.209 552.997 402.334C553.092 402.458 553.215 402.559 553.355 402.628C553.495 402.697 553.65 402.733 553.807 402.733H585.145C585.308 402.733 585.468 402.694 585.613 402.62C585.757 402.545 585.882 402.437 585.976 402.305C586.071 402.172 586.132 402.019 586.155 401.858C586.178 401.697 586.162 401.533 586.109 401.379L583.991 395.259C583.921 395.058 583.791 394.885 583.618 394.762C583.445 394.639 583.239 394.572 583.027 394.572H555.454Z" fill="#414141"/>
</g>
<path id="screen-laptop-black" d="M126.767 53C124.178 53.0029 121.695 54.035 119.864 55.8699C118.033 57.7048 117.003 60.1927 117 62.7876V359.212C117.003 361.807 118.033 364.295 119.864 366.13C121.695 367.965 124.178 368.997 126.767 369H647.233C649.822 368.997 652.305 367.965 654.136 366.13C655.967 364.295 656.997 361.807 657 359.212V62.7876C656.997 60.1927 655.967 57.705 654.136 55.8701C652.305 54.0352 649.822 53.003 647.233 53H126.767Z" fill="#484848"/>
<path id="Vector_8" d="M384.5 48C388.09 48 391 45.0898 391 41.5C391 37.9101 388.09 35 384.5 35C380.91 35 378 37.9101 378 41.5C378 45.0898 380.91 48 384.5 48Z" fill="#C6C6C6"/>
<g id="screen-laptop-1">
<path id="Vector_9" d="M493.284 105.235H357.448V107.716H493.284C499.972 107.716 506.386 110.373 511.115 115.102C515.843 119.831 518.5 126.244 518.5 132.932C518.5 139.62 515.843 146.033 511.115 150.762C506.386 155.491 499.972 158.148 493.284 158.148H287.74C281.053 158.148 274.639 155.491 269.91 150.762C265.181 146.033 262.524 139.62 262.524 132.932C262.524 126.244 265.181 119.831 269.91 115.102C274.639 110.373 281.053 107.716 287.74 107.716H295.421V105.235H287.74C280.397 105.239 273.357 108.159 268.166 113.353C262.975 118.547 260.06 125.589 260.06 132.932C260.06 140.275 262.975 147.317 268.166 152.511C273.357 157.705 280.397 160.624 287.74 160.629H493.284C496.923 160.631 500.526 159.916 503.888 158.525C507.251 157.134 510.306 155.094 512.879 152.522C515.453 149.95 517.495 146.896 518.888 143.535C520.281 140.173 520.997 136.571 520.997 132.932C520.997 129.293 520.281 125.69 518.888 122.329C517.495 118.968 515.453 115.914 512.879 113.342C510.306 110.77 507.251 108.73 503.888 107.339C500.526 105.948 496.923 105.233 493.284 105.235V105.235Z" fill="#E6E6E6"/>
<path id="Path 40" d="M310.754 98.6806C308.818 98.712 306.973 99.503 305.615 100.883C304.257 102.263 303.496 104.121 303.496 106.057C303.496 107.993 304.257 109.851 305.615 111.231C306.973 112.611 308.818 113.402 310.754 113.433H343.114C344.082 113.449 345.045 113.274 345.946 112.918C346.847 112.562 347.669 112.032 348.365 111.358C349.061 110.685 349.618 109.88 350.003 108.991C350.389 108.103 350.595 107.147 350.611 106.178C350.627 105.209 350.452 104.247 350.096 103.346C349.74 102.445 349.21 101.623 348.536 100.927C347.863 100.23 347.058 99.6738 346.17 99.2884C345.281 98.903 344.325 98.6965 343.356 98.6806C343.275 98.6792 343.195 98.6792 343.114 98.6806H310.754Z" fill="#3F3D56"/>
<path id="Path 40_2" d="M297.919 125.556C295.983 125.587 294.137 126.378 292.78 127.758C291.422 129.138 290.661 130.996 290.661 132.932C290.661 134.868 291.422 136.726 292.78 138.106C294.137 139.486 295.983 140.277 297.919 140.308H482.864C483.832 140.324 484.795 140.149 485.696 139.793C486.597 139.437 487.419 138.907 488.115 138.233C488.811 137.56 489.368 136.755 489.753 135.867C490.139 134.978 490.345 134.022 490.361 133.053C490.377 132.084 490.202 131.122 489.846 130.221C489.49 129.32 488.96 128.498 488.286 127.802C487.612 127.106 486.808 126.549 485.919 126.164C485.031 125.778 484.074 125.572 483.106 125.556C483.025 125.554 482.944 125.554 482.864 125.556H297.919Z" fill="#77448A"/>
<path id="Vector_10" d="M229.228 147.123C237.386 147.123 244 140.509 244 132.351C244 124.193 237.386 117.579 229.228 117.579C221.07 117.579 214.456 124.193 214.456 132.351C214.456 140.509 221.07 147.123 229.228 147.123Z" fill="#77448A"/>
<path id="Vector_11" d="M227.858 138.42L223.554 132.887L226.057 130.94L228.095 133.56L234.978 126.294L237.28 128.475L227.858 138.42Z" fill="white"/>
<path id="Vector_12" d="M553.006 147.123C561.164 147.123 567.778 140.509 567.778 132.351C567.778 124.193 561.164 117.579 553.006 117.579C544.848 117.579 538.234 124.193 538.234 132.351C538.234 140.509 544.848 147.123 553.006 147.123Z" fill="#E6E6E6"/>
<path id="Vector_13" d="M549.273 127.606L548.044 128.836L556.304 137.096L557.533 135.866L549.273 127.606Z" fill="#414141"/>
<path id="Vector_14" d="M556.738 127.606L548.478 135.866L549.708 137.096L557.968 128.836L556.738 127.606Z" fill="#414141"/>
</g>
<g id="screen-laptop-2">
<path id="Vector_15" d="M493.284 190.832H357.448V193.313H493.284C499.969 193.317 506.379 195.975 511.105 200.704C515.83 205.432 518.485 211.843 518.485 218.528C518.485 225.213 515.83 231.625 511.105 236.353C506.379 241.082 499.969 243.74 493.284 243.744H287.74C281.053 243.744 274.639 241.088 269.91 236.359C265.181 231.63 262.524 225.216 262.524 218.528C262.524 211.841 265.181 205.427 269.91 200.698C274.639 195.969 281.053 193.313 287.74 193.313H295.421V190.832H287.74C280.397 190.836 273.357 193.756 268.166 198.95C262.975 204.143 260.06 211.186 260.06 218.528C260.06 225.871 262.975 232.914 268.166 238.107C273.357 243.301 280.397 246.221 287.74 246.225H493.284C496.923 246.227 500.526 245.513 503.888 244.122C507.251 242.731 510.306 240.691 512.879 238.119C515.453 235.547 517.495 232.493 518.888 229.131C520.281 225.77 520.997 222.167 520.997 218.528C520.997 214.89 520.281 211.287 518.888 207.926C517.495 204.564 515.453 201.51 512.879 198.938C510.306 196.366 507.251 194.326 503.888 192.935C500.526 191.544 496.923 190.829 493.284 190.832V190.832Z" fill="#E6E6E6"/>
<path id="Path 40_3" d="M310.754 185.518C308.818 185.549 306.973 186.34 305.615 187.72C304.257 189.1 303.496 190.958 303.496 192.894C303.496 194.83 304.257 196.688 305.615 198.068C306.973 199.448 308.818 200.239 310.754 200.27H343.114C345.07 200.302 346.959 199.556 348.365 198.195C349.771 196.835 350.579 194.971 350.611 193.015C350.643 191.059 349.897 189.17 348.536 187.764C347.176 186.358 345.312 185.55 343.356 185.518C343.275 185.516 343.195 185.516 343.114 185.518H310.754Z" fill="#3F3D56"/>
<path id="Path 40_4" d="M297.919 211.152C295.983 211.184 294.138 211.975 292.78 213.355C291.423 214.735 290.662 216.593 290.662 218.528C290.662 220.464 291.423 222.322 292.78 223.702C294.138 225.082 295.983 225.873 297.919 225.905H482.864C483.832 225.921 484.795 225.745 485.696 225.389C486.597 225.034 487.419 224.504 488.115 223.83C488.811 223.156 489.368 222.352 489.753 221.463C490.139 220.574 490.345 219.618 490.361 218.65C490.377 217.681 490.202 216.719 489.846 215.818C489.49 214.917 488.96 214.094 488.286 213.398C487.612 212.702 486.808 212.145 485.919 211.76C485.031 211.375 484.074 211.168 483.106 211.152C483.025 211.151 482.944 211.151 482.864 211.152H297.919Z" fill="#77448A"/>
<path id="Vector_16" d="M229.228 232.719C237.386 232.719 244 226.106 244 217.947C244 209.789 237.386 203.176 229.228 203.176C221.07 203.176 214.456 209.789 214.456 217.947C214.456 226.106 221.07 232.719 229.228 232.719Z" fill="#77448A"/>
<path id="Vector_17" d="M227.858 224.016L223.554 218.483L226.057 216.537L228.095 219.156L234.978 211.89L237.28 214.072L227.858 224.016Z" fill="white"/>
<path id="Vector_18" d="M553.006 232.719C561.164 232.719 567.778 226.106 567.778 217.947C567.778 209.789 561.164 203.176 553.006 203.176C544.848 203.176 538.234 209.789 538.234 217.947C538.234 226.106 544.848 232.719 553.006 232.719Z" fill="#E6E6E6"/>
<path id="Vector_19" d="M549.273 213.203L548.044 214.432L556.304 222.692L557.533 221.463L549.273 213.203Z" fill="#414141"/>
<path id="Vector_20" d="M556.738 213.203L548.478 221.463L549.708 222.692L557.968 214.432L556.738 213.203Z" fill="#414141"/>
</g>
<g id="screen-laptop-3">
<path id="Vector_21" d="M493.284 276.428H357.448V278.909H493.284C499.972 278.909 506.386 281.566 511.115 286.295C515.843 291.023 518.5 297.437 518.5 304.125C518.5 310.812 515.843 317.226 511.115 321.955C506.386 326.684 499.972 329.341 493.284 329.341H287.74C281.053 329.341 274.639 326.684 269.91 321.955C265.181 317.226 262.524 310.812 262.524 304.125C262.524 297.437 265.181 291.023 269.91 286.295C274.639 281.566 281.053 278.909 287.74 278.909H295.421V276.428H287.74C280.395 276.428 273.35 279.346 268.156 284.54C262.961 289.734 260.043 296.779 260.043 304.125C260.043 311.47 262.961 318.515 268.156 323.709C273.35 328.904 280.395 331.822 287.74 331.822H493.284C496.922 331.822 500.523 331.105 503.883 329.713C507.244 328.321 510.297 326.281 512.869 323.709C515.441 321.138 517.481 318.084 518.873 314.724C520.265 311.364 520.981 307.762 520.981 304.125C520.981 300.488 520.265 296.886 518.873 293.526C517.481 290.165 515.441 287.112 512.869 284.54C510.297 281.968 507.244 279.928 503.883 278.536C500.523 277.144 496.922 276.428 493.284 276.428V276.428Z" fill="#E6E6E6"/>
<path id="Path 40_5" d="M310.754 269.873C308.818 269.905 306.973 270.696 305.615 272.076C304.258 273.456 303.497 275.314 303.497 277.25C303.497 279.185 304.258 281.043 305.615 282.423C306.973 283.803 308.818 284.594 310.754 284.626H343.114C345.07 284.658 346.959 283.912 348.365 282.551C349.771 281.19 350.579 279.327 350.611 277.371C350.643 275.414 349.897 273.526 348.536 272.119C347.176 270.713 345.312 269.906 343.356 269.873C343.275 269.872 343.195 269.872 343.114 269.873H310.754Z" fill="#3F3D56"/>
<path id="Path 40_6" d="M297.919 296.749C295.983 296.78 294.138 297.571 292.78 298.951C291.423 300.331 290.662 302.189 290.662 304.125C290.662 306.061 291.423 307.919 292.78 309.299C294.138 310.678 295.983 311.469 297.919 311.501H482.864C483.832 311.517 484.795 311.342 485.696 310.986C486.597 310.63 487.419 310.1 488.115 309.426C488.811 308.753 489.368 307.948 489.753 307.059C490.139 306.171 490.345 305.215 490.361 304.246C490.377 303.277 490.202 302.315 489.846 301.414C489.49 300.513 488.96 299.691 488.286 298.995C487.612 298.298 486.808 297.742 485.919 297.356C485.031 296.971 484.074 296.765 483.106 296.749C483.025 296.747 482.944 296.747 482.864 296.749H297.919Z" fill="#E6E6E6"/>
<path id="Vector_22" d="M229.228 318.315C237.386 318.315 244 311.702 244 303.544C244 295.386 237.386 288.772 229.228 288.772C221.07 288.772 214.456 295.386 214.456 303.544C214.456 311.702 221.07 318.315 229.228 318.315Z" fill="#E6E6E6"/>
<path id="Vector_23" d="M553.006 318.315C561.164 318.315 567.778 311.702 567.778 303.544C567.778 295.386 561.164 288.772 553.006 288.772C544.848 288.772 538.234 295.386 538.234 303.544C538.234 311.702 544.848 318.315 553.006 318.315Z" fill="#E6E6E6"/>
<path id="Vector_24" d="M227.858 309.613L223.554 304.08L226.057 302.133L228.095 304.753L234.978 297.487L237.28 299.667L227.858 309.613Z" fill="#252525"/>
<path id="Vector_25" d="M549.273 298.799L548.044 300.028L556.304 308.288L557.533 307.059L549.273 298.799Z" fill="#414141"/>
<path id="Vector_26" d="M556.738 298.799L548.478 307.059L549.708 308.288L557.968 300.028L556.738 298.799Z" fill="#414141"/>
</g>
</g>
</svg>
