<svg width="774" height="585" viewBox="0 0 774 585" fill="none" xmlns="http://www.w3.org/2000/svg">
<g id="onlinePage 1">
<g id="tree-mobile">
<path id="Vector" d="M211.133 393.666C257.017 393.666 294.213 356.47 294.213 310.586C294.213 264.702 257.017 227.506 211.133 227.506C165.249 227.506 128.053 264.702 128.053 310.586C128.053 356.47 165.249 393.666 211.133 393.666Z" fill="#E6E6E6"/>
<path id="Vector_2" d="M188.686 431.905L209.123 444.569V358.966L186.216 344.771C184.322 343.598 182.938 341.756 182.338 339.61V339.61C184.527 339.192 186.792 339.611 188.686 340.785L209.123 353.449V320.254C209.123 313.833 209.91 307.435 211.468 301.206C213.025 307.435 213.813 313.833 213.813 320.254V374.433L243.962 355.751C246.37 354.259 249.155 353.49 251.987 353.537C250.768 356.093 248.84 358.246 246.433 359.737L213.813 379.951V584.104H209.123V450.086L186.216 435.891C184.322 434.718 182.938 432.876 182.338 430.73V430.73C184.527 430.312 186.792 430.731 188.686 431.905V431.905Z" fill="#CCCCCC"/>
<path id="Vector_3" d="M88.0801 400.72C133.964 400.72 171.16 363.524 171.16 317.64C171.16 271.756 133.964 234.56 88.0801 234.56C42.1962 234.56 5 271.756 5 317.64C5 363.524 42.1962 400.72 88.0801 400.72Z" fill="#E6E6E6"/>
<path id="Vector_4" d="M110.527 438.959L90.09 451.623V366.02L112.997 351.825C114.891 350.652 116.275 348.81 116.874 346.664C114.686 346.246 112.42 346.665 110.527 347.839L90.09 360.503V327.308C90.09 320.887 89.3025 314.49 87.745 308.26C86.1876 314.49 85.4 320.887 85.4 327.308V381.487L55.2504 362.805C52.843 361.313 50.0575 360.544 47.2257 360.591C48.4447 363.147 50.3726 365.3 52.78 366.791L85.4 387.005V582.841H90.09V457.14L112.997 442.945C114.891 441.772 116.275 439.93 116.874 437.784C114.686 437.366 112.42 437.785 110.527 438.959Z" fill="#CCCCCC"/>
<path id="Vector_5" d="M148.431 287.264C227.431 287.264 291.474 223.222 291.474 144.221C291.474 65.2207 227.431 1.17827 148.431 1.17827C69.4303 1.17827 5.38782 65.2207 5.38782 144.221C5.38782 223.222 69.4303 287.264 148.431 287.264Z" fill="#E6E6E6"/>
<path id="Vector_6" d="M187.078 353.102L151.891 374.906V227.52L191.331 203.08C194.592 201.06 196.975 197.888 198.007 194.194L198.007 194.193H198.007C194.239 193.474 190.339 194.196 187.078 196.216L151.891 218.02V160.868C151.891 149.812 150.535 138.797 147.854 128.071C145.172 138.797 143.816 149.812 143.816 160.868V254.151L91.9064 221.984C87.7614 219.415 82.9655 218.092 78.0899 218.172C80.1886 222.574 83.508 226.279 87.653 228.848L143.816 263.65V583.155H151.891V384.406L191.331 359.966C194.592 357.945 196.975 354.774 198.007 351.079L198.007 351.079H198.007C194.239 350.359 190.339 351.081 187.078 353.102V353.102Z" fill="#CCCCCC"/>
</g>
<path id="Vector_7" d="M729 583H34V585H729V583Z" fill="#3F3D56"/>
<g id="mobile">
<path id="Vector_8" d="M554.526 138.785H552.586V41.3801C552.586 32.5416 549.075 24.0651 542.825 17.8153C536.575 11.5655 528.098 8.05443 519.26 8.05443H302.338C293.5 8.05443 285.023 11.5655 278.773 17.8153C272.523 24.0651 269.012 32.5416 269.012 41.3801V84.0569H268.277C267.758 84.0569 267.26 84.2632 266.893 84.6302C266.526 84.9973 266.32 85.4951 266.32 86.0142V105.1C266.32 105.62 266.526 106.117 266.893 106.484C267.26 106.852 267.758 107.058 268.277 107.058H269.012V126.161H268.106C267.849 126.161 267.595 126.212 267.357 126.31C267.12 126.408 266.904 126.553 266.722 126.734C266.54 126.916 266.396 127.132 266.298 127.369C266.199 127.607 266.149 127.861 266.149 128.118V164.239C266.149 164.758 266.355 165.256 266.722 165.623C267.089 165.99 267.587 166.196 268.106 166.196H269.012V180.206H268.192C267.935 180.205 267.68 180.256 267.443 180.354C267.205 180.453 266.989 180.597 266.808 180.779C266.626 180.96 266.482 181.176 266.383 181.414C266.285 181.651 266.234 181.905 266.234 182.162V218.626C266.234 219.145 266.441 219.642 266.808 220.01C267.175 220.377 267.673 220.583 268.192 220.583H269.012V551.047C269.012 559.886 272.523 568.362 278.773 574.612C285.023 580.862 293.5 584.373 302.338 584.373H519.26C528.099 584.373 536.575 580.862 542.825 574.612C549.075 568.362 552.586 559.886 552.586 551.047V208.643H554.526C555.045 208.643 555.543 208.436 555.91 208.069C556.277 207.702 556.483 207.204 556.483 206.685V140.742C556.483 140.223 556.277 139.726 555.91 139.358C555.543 138.991 555.045 138.785 554.526 138.785Z" fill="#3F3D56"/>
<path id="Vector_9" d="M419.735 33.7301H386.751C385.761 33.7291 384.812 33.3354 384.111 32.6353C383.411 31.9352 383.017 30.9859 383.016 29.9957V28.5675C383.017 27.5773 383.411 26.6281 384.111 25.928C384.812 25.2279 385.761 24.8341 386.751 24.8331H419.735C420.725 24.8341 421.675 25.2279 422.375 25.928C423.075 26.6281 423.469 27.5773 423.47 28.5675V29.9957C423.469 30.9859 423.075 31.9352 422.375 32.6353C421.675 33.3354 420.725 33.7291 419.735 33.7301V33.7301Z" fill="white"/>
<path id="Vector_10" d="M433.59 33.8502C436.111 33.8502 438.155 31.8067 438.155 29.2859C438.155 26.7651 436.111 24.7216 433.59 24.7216C431.07 24.7216 429.026 26.7651 429.026 29.2859C429.026 31.8067 431.07 33.8502 433.59 33.8502Z" fill="white"/>
<path id="Vector_11" d="M512.55 23.0635H480.071V26.9696C480.071 31.8888 478.116 36.6064 474.638 40.0848C471.16 43.5631 466.442 45.5172 461.523 45.5172H358.049C355.615 45.5184 353.204 45.04 350.954 44.1093C348.704 43.1787 346.66 41.814 344.938 40.0933C343.215 38.3726 341.849 36.3295 340.916 34.0807C339.984 31.8318 339.503 29.4213 339.502 26.9867V23.0635H309.048C303.074 23.0635 297.346 25.4364 293.122 29.6601C288.898 33.8838 286.526 39.6124 286.526 45.5856V45.5856V546.833C286.526 552.807 288.898 558.535 293.122 562.759C297.346 566.983 303.074 569.355 309.048 569.355H512.55C518.521 569.355 524.248 566.983 528.47 562.761C532.692 558.539 535.064 552.813 535.064 546.842V45.5856C535.065 42.6291 534.484 39.7013 533.353 36.9694C532.223 34.2375 530.566 31.755 528.476 29.6636C526.386 27.5723 523.905 25.913 521.174 24.7805C518.443 23.6481 515.515 23.0646 512.559 23.0635H512.55Z" fill="white"/>
<path id="Vector_12" d="M454.386 508.532H367.204C360.97 508.532 354.991 506.055 350.583 501.647C346.175 497.239 343.698 491.261 343.698 485.027C343.698 478.793 346.175 472.814 350.583 468.406C354.991 463.998 360.97 461.522 367.204 461.522H454.386C460.62 461.522 466.599 463.998 471.007 468.406C475.415 472.814 477.891 478.793 477.891 485.027C477.891 491.261 475.415 497.239 471.007 501.647C466.599 506.055 460.62 508.532 454.386 508.532V508.532Z" fill="#6C63FF"/>
<path id="Vector_13" d="M488.576 315.458H333.014C330.861 315.458 328.795 314.602 327.273 313.08C325.75 311.557 324.894 309.492 324.894 307.338C324.894 305.184 325.75 303.119 327.273 301.596C328.795 300.074 330.861 299.218 333.014 299.218H488.576C490.729 299.218 492.794 300.074 494.317 301.596C495.84 303.119 496.696 305.184 496.696 307.338C496.696 309.492 495.84 311.557 494.317 313.08C492.794 314.602 490.729 315.458 488.576 315.458V315.458Z" fill="#E6E6E6"/>
<path id="Vector_14" d="M488.576 339.39H333.014C330.861 339.39 328.795 338.535 327.273 337.012C325.75 335.489 324.894 333.424 324.894 331.27C324.894 329.117 325.75 327.052 327.273 325.529C328.795 324.006 330.861 323.15 333.014 323.15H488.576C490.729 323.15 492.794 324.006 494.317 325.529C495.84 327.052 496.696 329.117 496.696 331.27C496.696 333.424 495.84 335.489 494.317 337.012C492.794 338.535 490.729 339.39 488.576 339.39V339.39Z" fill="#E6E6E6"/>
<path id="Vector_15" d="M488.576 363.323H333.014C330.861 363.323 328.795 362.467 327.273 360.944C325.75 359.422 324.894 357.356 324.894 355.203C324.894 353.049 325.75 350.984 327.273 349.461C328.795 347.938 330.861 347.083 333.014 347.083H488.576C490.729 347.083 492.794 347.938 494.317 349.461C495.84 350.984 496.696 353.049 496.696 355.203C496.696 357.356 495.84 359.422 494.317 360.944C492.794 362.467 490.729 363.323 488.576 363.323V363.323Z" fill="#E6E6E6"/>
<path id="Vector_16" d="M488.576 387.255H333.014C330.861 387.255 328.795 386.4 327.273 384.877C325.75 383.354 324.894 381.289 324.894 379.135C324.894 376.982 325.75 374.916 327.273 373.394C328.795 371.871 330.861 371.015 333.014 371.015H488.576C490.729 371.015 492.794 371.871 494.317 373.394C495.84 374.916 496.696 376.982 496.696 379.135C496.696 381.289 495.84 383.354 494.317 384.877C492.794 386.4 490.729 387.255 488.576 387.255V387.255Z" fill="#E6E6E6"/>
<path id="Vector_17" d="M382.589 411.188H333.014C330.861 411.188 328.795 410.332 327.273 408.809C325.75 407.287 324.894 405.221 324.894 403.068C324.894 400.914 325.75 398.849 327.273 397.326C328.795 395.803 330.861 394.948 333.014 394.948H382.589C384.743 394.948 386.808 395.803 388.331 397.326C389.853 398.849 390.709 400.914 390.709 403.068C390.709 405.221 389.853 407.287 388.331 408.809C386.808 410.332 384.743 411.188 382.589 411.188H382.589Z" fill="#E6E6E6"/>
<path id="Vector_18" d="M512.923 248.916H308.667C306.861 248.914 305.13 248.196 303.853 246.919C302.576 245.643 301.858 243.911 301.856 242.106V90.5094C301.858 88.7038 302.576 86.9727 303.853 85.696C305.13 84.4193 306.861 83.7011 308.667 83.6991H512.923C514.728 83.7011 516.46 84.4193 517.736 85.696C519.013 86.9728 519.731 88.7038 519.733 90.5094V242.106C519.731 243.911 519.013 245.642 517.736 246.919C516.46 248.196 514.728 248.914 512.923 248.916V248.916Z" fill="#E6E6E6"/>
</g>
<g id="man-mobile">
<path id="Vector_19" d="M583.175 272.853C595.561 272.853 605.602 262.812 605.602 250.426C605.602 238.04 595.561 227.999 583.175 227.999C570.789 227.999 560.748 238.04 560.748 250.426C560.748 262.812 570.789 272.853 583.175 272.853Z" fill="#FFB8B8"/>
<path id="Vector_20" d="M641.504 432.284C642.379 431.482 643.068 430.498 643.522 429.402C643.976 428.306 644.184 427.123 644.132 425.937C644.079 424.752 643.767 423.592 643.218 422.54C642.669 421.488 641.896 420.569 640.953 419.848L637.895 392.685L620.865 397.334L629.156 421.782C628.05 423.446 627.593 425.458 627.871 427.436C628.149 429.415 629.144 431.223 630.666 432.517C632.188 433.812 634.132 434.503 636.129 434.46C638.127 434.417 640.039 433.642 641.504 432.284V432.284Z" fill="#FFB8B8"/>
<path id="Vector_21" d="M653.947 569.814L663.347 563.734L644.369 524.585L630.495 533.559L653.947 569.814Z" fill="#FFB8B8"/>
<path id="Vector_22" d="M687.12 560.737L657.579 579.845L650.196 568.431L668.75 556.43C670.193 555.496 671.806 554.856 673.496 554.546C675.186 554.236 676.921 554.262 678.601 554.622C680.281 554.983 681.874 555.67 683.288 556.646C684.703 557.622 685.911 558.867 686.844 560.31L687.12 560.737V560.737Z" fill="#2F2E41"/>
<path id="Vector_23" d="M570.704 573.792H581.898L587.226 530.613H570.704V573.792Z" fill="#FFB8B8"/>
<path id="Vector_24" d="M603.488 584.187H568.305V570.594H590.403C593.873 570.594 597.201 571.972 599.655 574.426C602.109 576.88 603.488 580.208 603.488 583.679V584.187V584.187Z" fill="#2F2E41"/>
<path id="Vector_25" d="M615.632 294.957C614.144 299.805 619.42 305.082 621.124 309.846C622.828 314.611 625.12 319.195 626.041 324.181C626.671 327.609 640.951 403.328 640.265 407.939C635.869 406.622 631.134 407.056 627.052 409.151C624.199 404.14 622.485 398.563 622.031 392.815C621.859 389.407 621.891 385.991 622.128 382.587C622.571 372.954 618.395 363.307 618.257 353.668C618.3 350.327 618.036 346.988 617.467 343.696C617.01 341.431 617.052 337.193 616.56 334.936C615.778 331.348 619.143 329.693 618.956 326.016L617.931 305.933C617.717 302.415 614.185 298.101 615.632 294.957Z" fill="#2F2E41"/>
<path id="Vector_26" d="M565 379.216C561.4 384.832 553.823 386.046 548.523 390.069C540.425 396.251 561.085 535.141 567.906 559.815C585.903 557.116 586.533 557.125 588.603 556.216C590.672 555.307 592.544 484.76 596.917 470.218C605.101 477.931 630.86 544.221 636.295 558.916C657.891 553.516 636.295 558.916 664.19 551.717C663.956 546.624 622.968 380.665 621.474 367.59C602.721 371.325 583.698 375.491 565 379.216Z" fill="#2F2E41"/>
<path id="Vector_27" d="M562.573 274.923C560.35 281.509 563.376 307.131 563.598 312.893C563.916 318.124 563.916 323.369 563.598 328.599C562.829 337.657 560.135 346.777 561.943 355.683C563.127 361.576 565.232 367.054 565.724 373.051C566.056 377.206 565.952 381.43 567.268 385.371C572.115 383.293 615.092 376.152 618.25 371.998C616.089 361.562 618.181 350.787 616.747 340.226C615.916 334.139 613.86 328.28 612.89 322.221C611.692 314.742 612.198 306.986 610.016 299.722C608.807 296.044 607.27 292.481 605.425 289.078C603.547 285.207 601.192 282.027 600.386 282.028C598.343 282.139 562.703 274.336 562.573 274.923Z" fill="#6C63FF"/>
<path id="Vector_28" d="M554.346 431.72C554.346 431.72 561.797 416.852 562.171 408.348C562.303 405.294 570.668 393.141 574.435 390.384C583.369 383.84 589.954 339.977 586.935 329.333C581.714 310.933 572.919 293.78 563.992 276.869C563.726 276.238 563.296 275.691 562.746 275.283C560.932 274.154 558.965 276.377 557.725 278.116C553.522 284.009 546.597 287.16 540.253 290.643C533.91 294.126 527.421 298.766 525.503 305.74C524.215 310.421 525.219 315.386 526.196 320.13C527.172 324.873 530.586 328.641 533.169 332.636C536.163 337.046 543.941 356.603 543.882 358.924C544.034 373.272 544.18 387.67 542.442 401.921C541.465 409.975 540.606 426.159 540.606 426.159L554.346 431.72Z" fill="#2F2E41"/>
<path id="Vector_29" d="M622.017 416.346C608.299 385.121 609.067 349.589 600.349 316.626C597.759 306.841 594.296 297.007 594.92 286.903C595.03 285.096 595.411 283.067 596.921 282.056C598.264 281.156 600.093 281.398 601.568 282.056C603.043 282.714 604.303 283.787 605.723 284.521C608.015 285.692 610.681 286.024 612.883 287.347C616.152 289.313 617.821 293.053 619.282 296.571C622.405 304.084 625.514 311.806 625.764 319.95C626.29 335.766 619.275 350.967 622.931 366.347C623.72 369.381 624.663 372.371 625.757 375.308C629.423 385.918 632.429 396.744 634.759 407.725C635.168 409.601 622.592 417.662 622.017 416.346Z" fill="#2F2E41"/>
<path id="Vector_30" d="M578.466 408.958C578.65 407.785 578.574 406.587 578.244 405.447C577.914 404.307 577.338 403.253 576.557 402.36C575.776 401.466 574.809 400.755 573.723 400.276C572.637 399.797 571.459 399.562 570.273 399.587L550.927 380.276L540.525 394.539L562.264 408.462C562.439 410.452 563.338 412.31 564.79 413.682C566.243 415.054 568.148 415.845 570.145 415.906C572.142 415.968 574.092 415.294 575.626 414.013C577.16 412.733 578.17 410.934 578.466 408.958V408.958Z" fill="#FFB8B8"/>
<path id="Vector_31" d="M516.826 365.101C517.145 368.003 541.517 398.603 554.761 408.59C553.993 404.65 564.373 391.797 567.732 389.789C559.339 381.871 541.802 363.507 541.223 362.504C539.325 358.841 541.223 354.464 542.878 350.676C548.093 338.633 550.551 324.97 547.206 312.277C545.946 307.512 543.744 302.741 539.734 299.812C537.982 298.537 535.614 297.665 533.668 298.634C532.853 299.104 532.145 299.738 531.59 300.497C525.378 308.052 516.59 362.947 516.826 365.101Z" fill="#2F2E41"/>
<path id="Vector_32" d="M573.616 270.051C574.925 264.495 568.306 252.54 569.615 246.984C570.502 243.222 579.35 245.78 581.414 242.512C583.479 239.244 586.937 236.596 590.803 236.553C595.246 236.503 599.617 239.799 603.826 238.374C608.082 236.934 609.442 231.106 607.56 227.027C605.679 222.947 601.626 220.348 597.622 218.311C590.803 214.842 582.864 212.308 575.566 214.604C571.154 215.991 567.466 218.997 563.896 221.937C560.642 224.618 557.334 227.358 555.059 230.908C550.603 237.861 550.872 247.229 554.68 254.557C558.488 261.885 565.427 267.263 573.072 270.385" fill="#2F2E41"/>
</g>
</g>
</svg>
