<svg width="995" height="585" viewBox="0 0 995 585" fill="none" xmlns="http://www.w3.org/2000/svg">
<g id="onlinePage 1" clip-path="url(#clip0)">
<g id="window">
<path id="Vector" d="M985.339 482H179.339C176.953 481.997 174.665 481.048 172.978 479.361C171.291 477.674 170.342 475.386 170.339 473V9C170.342 6.61385 171.291 4.32618 172.978 2.63892C174.665 0.951653 176.953 0.00260459 179.339 0H985.339C987.725 0.00260459 990.013 0.951653 991.7 2.63892C993.387 4.32618 994.337 6.61385 994.339 9V473C994.337 475.386 993.387 477.674 991.7 479.361C990.013 481.048 987.725 481.997 985.339 482V482ZM179.339 2C177.483 2.00216 175.704 2.74036 174.392 4.05264C173.079 5.36493 172.341 7.14415 172.339 9V473C172.341 474.856 173.079 476.635 174.392 477.947C175.704 479.26 177.483 479.998 179.339 480H985.339C987.195 479.998 988.974 479.26 990.286 477.947C991.599 476.635 992.337 474.856 992.339 473V9C992.337 7.14417 991.599 5.365 990.286 4.05273C988.974 2.74047 987.195 2.00225 985.339 2H179.339Z" fill="white"/>
<path id="Vector_2" d="M200.204 27.2399C204.07 27.2399 207.204 24.1058 207.204 20.2399C207.204 16.3739 204.07 13.2399 200.204 13.2399C196.338 13.2399 193.204 16.3739 193.204 20.2399C193.204 24.1058 196.338 27.2399 200.204 27.2399Z" fill="#536DFE"/>
<path id="Vector_3" d="M220.204 27.2399C224.07 27.2399 227.204 24.1058 227.204 20.2399C227.204 16.3739 224.07 13.2399 220.204 13.2399C216.338 13.2399 213.204 16.3739 213.204 20.2399C213.204 24.1058 216.338 27.2399 220.204 27.2399Z" fill="#536DFE"/>
<path id="Vector_4" d="M240.204 27.2399C244.07 27.2399 247.204 24.1058 247.204 20.2399C247.204 16.3739 244.07 13.2399 240.204 13.2399C236.338 13.2399 233.204 16.3739 233.204 20.2399C233.204 24.1058 236.338 27.2399 240.204 27.2399Z" fill="#536DFE"/>
<path id="Vector_5" d="M993.339 37H171.339V42H993.339V37Z" fill="white"/>
</g>
<g id="left-item-window">
<path id="Vector_6" d="M498.464 350.25H243.839C241.586 350.247 239.425 349.351 237.832 347.758C236.238 346.164 235.342 344.004 235.339 341.75V184.75C235.342 182.496 236.238 180.336 237.832 178.742C239.425 177.149 241.586 176.253 243.839 176.25H498.464C500.717 176.253 502.878 177.149 504.471 178.742C506.065 180.336 506.961 182.496 506.964 184.75V341.75C506.961 344.004 506.065 346.164 504.471 347.758C502.878 349.351 500.717 350.247 498.464 350.25V350.25Z" fill="#E6E6E6"/>
<path id="Vector_7" d="M262.215 165.25C260.226 165.252 258.32 166.043 256.914 167.449C255.508 168.855 254.717 170.762 254.715 172.75V329.75C254.717 331.738 255.508 333.645 256.914 335.051C258.32 336.457 260.226 337.248 262.215 337.25H516.839C518.828 337.248 520.734 336.457 522.14 335.051C523.546 333.645 524.337 331.738 524.339 329.75V172.75C524.337 170.762 523.546 168.855 522.14 167.449C520.734 166.043 518.828 165.252 516.839 165.25H262.215Z" fill="#7268E4"/>
</g>
<g id="right-item-window">
<path id="Vector_8" d="M626.839 166.75C625.38 166.75 623.981 167.329 622.95 168.361C621.919 169.392 621.339 170.791 621.339 172.25C621.339 173.709 621.919 175.108 622.95 176.139C623.981 177.171 625.38 177.75 626.839 177.75H923.839C925.298 177.75 926.697 177.171 927.728 176.139C928.76 175.108 929.339 173.709 929.339 172.25C929.339 170.791 928.76 169.392 927.728 168.361C926.697 167.329 925.298 166.75 923.839 166.75H626.839Z" fill="#6E80E2"/>
<path id="Vector_9" d="M626.839 201.75C625.38 201.75 623.981 202.329 622.95 203.361C621.919 204.392 621.339 205.791 621.339 207.25C621.339 208.709 621.919 210.108 622.95 211.139C623.981 212.171 625.38 212.75 626.839 212.75H923.839C925.298 212.75 926.697 212.171 927.728 211.139C928.76 210.108 929.339 208.709 929.339 207.25C929.339 205.791 928.76 204.392 927.728 203.361C926.697 202.329 925.298 201.75 923.839 201.75H626.839Z" fill="#6E80E2"/>
<path id="Vector_10" d="M626.839 236.75C625.38 236.75 623.981 237.329 622.95 238.361C621.919 239.392 621.339 240.791 621.339 242.25C621.339 243.709 621.919 245.108 622.95 246.139C623.981 247.171 625.38 247.75 626.839 247.75H923.839C925.298 247.75 926.697 247.171 927.728 246.139C928.76 245.108 929.339 243.709 929.339 242.25C929.339 240.791 928.76 239.392 927.728 238.361C926.697 237.329 925.298 236.75 923.839 236.75H626.839Z" fill="#6E80E2"/>
<path id="Vector_11" d="M626.839 271.75C625.38 271.75 623.981 272.329 622.95 273.361C621.919 274.392 621.339 275.791 621.339 277.25C621.339 278.709 621.919 280.108 622.95 281.139C623.981 282.171 625.38 282.75 626.839 282.75H923.839C925.298 282.75 926.697 282.171 927.728 281.139C928.76 280.108 929.339 278.709 929.339 277.25C929.339 275.791 928.76 274.392 927.728 273.361C926.697 272.329 925.298 271.75 923.839 271.75H626.839Z" fill="#E6E6E6"/>
<path id="Vector_12" d="M626.839 306.75C625.38 306.75 623.981 307.329 622.95 308.361C621.919 309.392 621.339 310.791 621.339 312.25C621.339 313.709 621.919 315.108 622.95 316.139C623.981 317.171 625.38 317.75 626.839 317.75H923.839C925.298 317.75 926.697 317.171 927.728 316.139C928.76 315.108 929.339 313.709 929.339 312.25C929.339 310.791 928.76 309.392 927.728 308.361C926.697 307.329 925.298 306.75 923.839 306.75H626.839Z" fill="#E6E6E6"/>
<path id="Vector_13" d="M626.839 341.75C625.38 341.75 623.981 342.329 622.95 343.361C621.919 344.392 621.339 345.791 621.339 347.25C621.339 348.709 621.919 350.108 622.95 351.139C623.981 352.171 625.38 352.75 626.839 352.75H923.839C925.298 352.75 926.697 352.171 927.728 351.139C928.76 350.108 929.339 348.709 929.339 347.25C929.339 345.791 928.76 344.392 927.728 343.361C926.697 342.329 925.298 341.75 923.839 341.75H626.839Z" fill="#E6E6E6"/>
</g>
<g id="man">
<path id="Vector_14" d="M324.033 582.431H0V584.672H324.033V582.431Z" fill="white"/>
<path id="Vector_15" d="M154.102 383.109C153.016 383.111 151.946 382.841 150.991 382.323C150.036 381.805 149.226 381.055 148.635 380.144L140.615 367.753C139.681 366.305 139.358 364.545 139.719 362.86C140.08 361.175 141.095 359.702 142.54 358.764L245.81 291.921C247.258 290.986 249.017 290.664 250.702 291.025C252.387 291.387 253.86 292.401 254.798 293.847L262.818 306.237C263.282 306.954 263.6 307.755 263.755 308.594C263.909 309.434 263.896 310.296 263.717 311.13C263.539 311.965 263.197 312.756 262.713 313.459C262.228 314.162 261.61 314.762 260.893 315.226L157.624 382.068C156.575 382.749 155.352 383.11 154.102 383.109Z" fill="#42A6D0"/>
<path id="Vector_16" d="M157.321 381.241L200.49 357.136C201.837 356.384 202.842 355.143 203.297 353.67C203.753 352.196 203.624 350.604 202.936 349.224L192.936 329.131C192.541 328.337 191.975 327.641 191.278 327.092C190.582 326.544 189.773 326.156 188.909 325.957C188.045 325.759 187.147 325.754 186.281 325.943C185.415 326.133 184.602 326.512 183.9 327.054L142.774 358.775C141.441 359.641 140.505 361 140.171 362.555C139.838 364.109 140.134 365.733 140.995 367.07L149.016 379.463C149.882 380.799 151.244 381.736 152.801 382.07C154.358 382.403 155.983 382.105 157.321 381.241V381.241Z" fill="white"/>
<path id="Vector_17" d="M153.121 303.793C182.679 303.793 206.64 279.832 206.64 250.274C206.64 220.716 182.679 196.755 153.121 196.755C123.563 196.755 99.6018 220.716 99.6018 250.274C99.6018 279.832 123.563 303.793 153.121 303.793Z" fill="#42A6D0"/>
<path id="Vector_18" d="M144.688 583.62H129.928C128.205 583.618 126.553 582.933 125.335 581.714C124.116 580.496 123.43 578.843 123.428 577.12V454.106C123.43 452.382 124.116 450.73 125.335 449.512C126.553 448.293 128.205 447.608 129.928 447.606H144.688C146.412 447.608 148.064 448.293 149.282 449.512C150.501 450.73 151.186 452.382 151.188 454.106V577.12C151.186 578.843 150.501 580.496 149.282 581.714C148.064 582.933 146.412 583.618 144.688 583.62V583.62Z" fill="#2F2E41"/>
<path id="Vector_19" d="M173.881 583.62H159.121C157.398 583.618 155.745 582.933 154.527 581.714C153.308 580.496 152.623 578.843 152.621 577.12V454.106C152.623 452.382 153.308 450.73 154.527 449.512C155.745 448.293 157.398 447.608 159.121 447.606H173.881C175.604 447.608 177.256 448.293 178.475 449.512C179.693 450.73 180.379 452.382 180.381 454.106V577.12C180.379 578.843 179.693 580.496 178.475 581.714C177.256 582.933 175.604 583.618 173.881 583.62Z" fill="#2F2E41"/>
<path id="Vector_20" d="M186.044 468.067H118.982C117.258 468.065 115.606 467.38 114.388 466.161C113.169 464.943 112.484 463.291 112.482 461.567V348.469C112.493 338.957 116.276 329.838 123.002 323.112C129.728 316.386 138.847 312.603 148.359 312.592H186.044C187.768 312.594 189.42 313.279 190.638 314.498C191.857 315.716 192.542 317.369 192.544 319.092V461.567C192.542 463.291 191.857 464.943 190.638 466.161C189.42 467.38 187.768 468.065 186.044 468.067V468.067Z" fill="white"/>
<path id="Vector_21" d="M194.358 233.069H183.586V235.069H194.358V233.069Z" fill="#2F2E41"/>
<path id="Vector_22" d="M215.044 459.243C213.862 459.242 212.703 458.92 211.69 458.311C210.677 457.702 209.849 456.829 209.294 455.786L151.629 347.125C150.823 345.602 150.654 343.821 151.159 342.174C151.665 340.526 152.803 339.146 154.324 338.337L167.361 331.418C168.884 330.612 170.665 330.443 172.313 330.948C173.96 331.454 175.34 332.591 176.15 334.112L233.815 442.773C234.621 444.297 234.79 446.078 234.284 447.725C233.779 449.373 232.641 450.753 231.12 451.563L218.082 458.481C217.147 458.98 216.104 459.242 215.044 459.243Z" fill="#42A6D0"/>
<path id="Vector_23" d="M147.479 346.895L172.762 391.986C173.395 393.393 174.544 394.502 175.973 395.083C177.401 395.664 178.998 395.673 180.433 395.108L201.315 386.881C202.14 386.556 202.883 386.053 203.49 385.406C204.097 384.76 204.553 383.987 204.825 383.144C205.098 382.3 205.18 381.406 205.066 380.527C204.952 379.648 204.645 378.805 204.166 378.059L176.119 332.345C175.372 330.942 174.099 329.892 172.579 329.425C171.059 328.958 169.416 329.113 168.009 329.855L149.969 338.775C148.563 339.523 147.512 340.797 147.045 342.32C146.578 343.842 146.734 345.488 147.479 346.895V346.895Z" fill="white"/>
<path id="Vector_24" d="M184.89 211.143C191.345 210.543 196.749 206.269 199.615 200.548C201.079 197.587 201.846 194.331 201.86 191.029C201.874 187.726 201.134 184.464 199.695 181.491C196.653 175.257 191.578 170.246 185.306 167.283C178.011 163.75 169.772 162.771 161.747 163.096C146.626 163.706 129.966 167.951 120.671 180.845C116.298 186.693 114.398 194.024 115.379 201.259C116.556 208.852 121.177 215.428 126.111 221.096C131.283 227.036 137.25 232.387 141.338 239.192C144.874 245.081 146.777 252.496 144.411 259.178C143.847 260.762 143.009 262.235 141.937 263.53C140.714 265.006 142.825 267.14 144.058 265.651C148.314 260.515 149.174 253.736 147.834 247.346C146.359 240.311 142.103 234.363 137.448 229.05C128.392 218.711 114.905 207.422 118.712 191.976C120.499 185.282 124.566 179.42 130.211 175.403C136.265 171.014 143.452 168.6 150.755 167.289C164.73 164.779 181.654 165.042 192.213 175.93C196.601 180.456 199.619 186.779 198.811 193.197C198.082 198.984 194.387 204.66 188.985 207.074C187.687 207.651 186.304 208.012 184.89 208.143C182.983 208.321 182.965 211.322 184.89 211.143L184.89 211.143Z" fill="white"/>
</g>
</g>
<defs>
<clipPath id="clip0">
<rect width="994.339" height="584.672" fill="white"/>
</clipPath>
</defs>
</svg>
