<svg width="908" height="733" viewBox="0 0 908 733" fill="none" xmlns="http://www.w3.org/2000/svg">
<rect width="908" height="733" fill="#E5E5E5"/>
<g id="undraw_Mobile_life_re_jtih 1" clip-path="url(#clip0)">
<g id="tree-mobile">
<path id="Vector" d="M253.665 493.112C311.242 493.112 357.917 446.379 357.917 388.732C357.917 331.085 311.242 284.352 253.665 284.352C196.087 284.352 149.412 331.085 149.412 388.732C149.412 446.379 196.087 493.112 253.665 493.112Z" fill="#E6E6E6"/>
<path id="Vector_2" d="M225.498 541.154L251.142 557.065V449.516L222.398 431.682C220.021 430.208 218.285 427.893 217.532 425.197V425.197C220.278 424.672 223.121 425.199 225.498 426.673L251.143 442.584V400.879C251.143 392.812 252.131 384.774 254.085 376.947C256.04 384.774 257.028 392.812 257.028 400.879V468.949L294.861 445.476C297.882 443.602 301.377 442.636 304.931 442.695C303.401 445.907 300.982 448.611 297.961 450.485L257.028 475.881V732.373H251.142V563.997L222.398 546.163C220.021 544.689 218.285 542.374 217.532 539.678V539.678C220.278 539.153 223.121 539.68 225.498 541.154V541.154Z" fill="#CCCCCC"/>
<path id="Vector_3" d="M99.2527 501.974C156.83 501.974 203.505 455.242 203.505 397.594C203.505 339.947 156.83 293.215 99.2527 293.215C41.6755 293.215 -5 339.947 -5 397.594C-5 455.242 41.6755 501.974 99.2527 501.974Z" fill="#E6E6E6"/>
<path id="Vector_4" d="M127.42 550.017L101.775 565.927V458.378L130.52 440.544C132.896 439.07 134.632 436.756 135.385 434.06C132.639 433.534 129.796 434.061 127.419 435.536L101.775 451.446V409.742C101.775 401.674 100.787 393.637 98.8322 385.81C96.8778 393.637 95.8896 401.674 95.8896 409.742V477.811L58.0565 454.339C55.0356 452.464 51.5402 451.499 47.9868 451.557C49.5163 454.769 51.9356 457.473 54.9566 459.347L95.8896 484.743V730.787H101.775V572.859L130.52 555.025C132.896 553.551 134.632 551.237 135.385 548.541C132.639 548.016 129.796 548.542 127.42 550.017Z" fill="#CCCCCC"/>
<path id="Vector_5" d="M174.983 359.431C274.116 359.431 354.48 278.97 354.48 179.716C354.48 80.4614 274.116 0 174.983 0C75.8495 0 -4.51389 80.4614 -4.51389 179.716C-4.51389 278.97 75.8495 359.431 174.983 359.431Z" fill="#E6E6E6"/>
<path id="Vector_6" d="M223.48 442.148L179.326 469.542V284.37L228.817 253.665C232.909 251.126 235.899 247.141 237.194 242.5L237.194 242.5H237.194C232.466 241.595 227.571 242.502 223.48 245.041L179.326 272.435V200.631C179.326 186.74 177.625 172.901 174.26 159.425C170.895 172.901 169.193 186.74 169.193 200.631V317.829L104.054 277.415C98.8527 274.188 92.8347 272.525 86.7166 272.626C89.35 278.156 93.5154 282.811 98.7167 286.038L169.193 329.764V731.182H179.326V481.477L228.817 450.772C232.909 448.233 235.899 444.249 237.194 439.607L237.194 439.607H237.194C232.466 438.703 227.571 439.61 223.48 442.148V442.148Z" fill="#CCCCCC"/>
</g>
<path id="Vector_7" d="M903.986 727H32V729.148H903.986V727Z" fill="#3F3D56"/>
<g id="mobile">
<path id="Vector_8" d="M709.869 168.247H707.434V45.8696C707.434 34.7651 703.028 24.1154 695.186 16.2633C687.343 8.41124 676.706 4 665.615 4H393.412C382.321 4 371.684 8.41124 363.842 16.2633C355.999 24.1154 351.593 34.7651 351.593 45.8696V99.4877H350.671C350.019 99.4877 349.395 99.7468 348.934 100.208C348.473 100.669 348.215 101.295 348.215 101.947V125.926C348.215 126.578 348.473 127.204 348.934 127.665C349.395 128.126 350.019 128.385 350.671 128.385H351.593V152.386H350.456C350.134 152.386 349.814 152.45 349.516 152.573C349.218 152.697 348.947 152.878 348.719 153.106C348.491 153.335 348.31 153.606 348.187 153.904C348.063 154.203 348 154.522 348 154.845V200.227C348 200.879 348.259 201.504 348.719 201.965C349.18 202.427 349.805 202.686 350.456 202.686H351.593V220.286H350.563C350.241 220.286 349.922 220.35 349.624 220.474C349.326 220.597 349.055 220.778 348.827 221.006C348.599 221.235 348.418 221.506 348.294 221.804C348.171 222.102 348.107 222.422 348.107 222.745V268.556C348.107 269.209 348.366 269.834 348.827 270.295C349.287 270.756 349.912 271.016 350.563 271.016H351.593V686.203C351.593 697.307 355.999 707.957 363.841 715.809C371.684 723.661 382.321 728.073 393.412 728.073H665.615C676.706 728.073 687.343 723.661 695.186 715.809C703.028 707.957 707.434 697.307 707.434 686.203V256.014H709.869C710.52 256.014 711.145 255.755 711.606 255.294C712.066 254.833 712.325 254.207 712.325 253.555V170.706C712.325 170.054 712.066 169.428 711.606 168.967C711.145 168.506 710.52 168.247 709.869 168.247Z" fill="#3F3D56"/>
<path id="Vector_9" d="M540.727 36.2583H499.337C498.095 36.2571 496.903 35.7624 496.025 34.8828C495.146 34.0032 494.652 32.8106 494.65 31.5665V29.7722C494.652 28.5281 495.146 27.3355 496.025 26.4559C496.903 25.5763 498.095 25.0816 499.337 25.0803H540.727C541.97 25.0816 543.161 25.5763 544.04 26.4559C544.918 27.3355 545.413 28.5281 545.414 29.7722V31.5665C545.413 32.8105 544.918 34.0032 544.04 34.8828C543.161 35.7624 541.97 36.2571 540.727 36.2583V36.2583Z" fill="white"/>
<path id="Vector_10" d="M558.113 36.4092C561.276 36.4092 563.841 33.8418 563.841 30.6747C563.841 27.5077 561.276 24.9403 558.113 24.9403C554.95 24.9403 552.386 27.5077 552.386 30.6747C552.386 33.8418 554.95 36.4092 558.113 36.4092Z" fill="white"/>
<path id="Vector_11" d="M657.196 22.857H616.439V27.7646C616.439 33.9448 613.987 39.872 609.622 44.2421C605.257 48.6123 599.337 51.0674 593.164 51.0674H463.321C460.266 51.0688 457.24 50.4677 454.417 49.2985C451.594 48.1292 449.029 46.4147 446.868 44.2529C444.707 42.091 442.992 39.5241 441.822 36.6987C440.651 33.8733 440.048 30.8448 440.047 27.786V22.857H401.831C394.336 22.857 387.147 25.8382 381.847 31.1448C376.547 36.4514 373.57 43.6486 373.57 51.1533V51.1533V680.909C373.57 688.413 376.547 695.61 381.847 700.917C387.147 706.224 394.336 709.205 401.831 709.205H657.196C664.688 709.205 671.874 706.225 677.172 700.92C682.47 695.616 685.447 688.421 685.447 680.919V51.1533C685.448 47.4388 684.719 43.7603 683.3 40.328C681.882 36.8958 679.802 33.7768 677.18 31.1493C674.558 28.5217 671.444 26.437 668.017 25.0142C664.59 23.5915 660.916 22.8584 657.206 22.857H657.196Z" fill="white"/>
<path id="Vector_12" d="M584.209 632.787H474.808C466.985 632.787 459.483 629.676 453.952 624.138C448.42 618.6 445.313 611.088 445.313 603.256C445.313 595.424 448.42 587.913 453.952 582.375C459.483 576.836 466.985 573.725 474.808 573.725H584.209C592.032 573.725 599.534 576.836 605.065 582.375C610.597 587.913 613.704 595.424 613.704 603.256C613.704 611.088 610.597 618.6 605.065 624.138C599.534 629.676 592.032 632.787 584.209 632.787V632.787Z" fill="#6C63FF"/>
<path id="Vector_13" d="M627.111 390.214H431.906C429.203 390.214 426.612 389.139 424.701 387.226C422.79 385.313 421.717 382.718 421.717 380.012C421.717 377.307 422.79 374.712 424.701 372.799C426.612 370.886 429.203 369.811 431.906 369.811H627.111C629.814 369.811 632.405 370.886 634.316 372.799C636.227 374.712 637.3 377.307 637.3 380.012C637.3 382.718 636.227 385.313 634.316 387.226C632.405 389.139 629.814 390.214 627.111 390.214V390.214Z" fill="#E6E6E6"/>
<path id="Vector_14" d="M627.111 420.282H431.906C429.203 420.282 426.612 419.207 424.701 417.294C422.79 415.381 421.717 412.786 421.717 410.081C421.717 407.375 422.79 404.78 424.701 402.867C426.612 400.954 429.203 399.879 431.906 399.879H627.111C629.814 399.879 632.405 400.954 634.316 402.867C636.227 404.78 637.3 407.375 637.3 410.081C637.3 412.786 636.227 415.381 634.316 417.294C632.405 419.207 629.814 420.282 627.111 420.282V420.282Z" fill="#E6E6E6"/>
<path id="Vector_15" d="M627.111 450.35H431.906C429.203 450.35 426.612 449.276 424.701 447.362C422.79 445.449 421.717 442.854 421.717 440.149C421.717 437.443 422.79 434.848 424.701 432.935C426.612 431.022 429.203 429.947 431.906 429.947H627.111C629.814 429.947 632.405 431.022 634.316 432.935C636.227 434.848 637.3 437.443 637.3 440.149C637.3 442.854 636.227 445.449 634.316 447.362C632.405 449.276 629.814 450.35 627.111 450.35V450.35Z" fill="#E6E6E6"/>
<path id="Vector_16" d="M627.111 480.419H431.906C429.203 480.419 426.612 479.344 424.701 477.431C422.79 475.517 421.717 472.923 421.717 470.217C421.717 467.511 422.79 464.916 424.701 463.003C426.612 461.09 429.203 460.015 431.906 460.015H627.111C629.814 460.015 632.405 461.09 634.316 463.003C636.227 464.916 637.3 467.511 637.3 470.217C637.3 472.923 636.227 475.517 634.316 477.431C632.405 479.344 629.814 480.419 627.111 480.419V480.419Z" fill="#E6E6E6"/>
<path id="Vector_17" d="M494.115 510.487H431.906C429.203 510.487 426.612 509.412 424.701 507.499C422.79 505.585 421.717 502.991 421.717 500.285C421.717 497.579 422.79 494.984 424.701 493.071C426.612 491.158 429.203 490.083 431.906 490.083H494.114C496.817 490.083 499.409 491.158 501.319 493.071C503.23 494.984 504.304 497.579 504.304 500.285C504.304 502.991 503.23 505.585 501.319 507.499C499.409 509.412 496.817 510.487 494.114 510.487H494.115Z" fill="#E6E6E6"/>
<path id="Vector_18" d="M657.663 306.613H401.353C399.088 306.61 396.915 305.708 395.313 304.104C393.711 302.5 392.81 300.325 392.807 298.056V107.594C392.81 105.326 393.711 103.151 395.313 101.547C396.915 99.9429 399.088 99.0407 401.353 99.0381H657.663C659.929 99.0407 662.101 99.9429 663.703 101.547C665.305 103.151 666.207 105.326 666.209 107.594V298.056C666.207 300.325 665.305 302.5 663.703 304.104C662.101 305.708 659.929 306.61 657.663 306.613V306.613Z" fill="#E6E6E6"/>
</g>
<g id="man-mobile">
<path id="Vector_19" d="M749.263 338.289C764.806 338.289 777.406 325.674 777.406 310.112C777.406 294.551 764.806 281.935 749.263 281.935C733.721 281.935 721.121 294.551 721.121 310.112C721.121 325.674 733.721 338.289 749.263 338.289Z" fill="#FFB8B8"/>
<path id="Vector_20" d="M822.457 538.593C823.556 537.586 824.42 536.351 824.99 534.973C825.56 533.595 825.821 532.11 825.755 530.62C825.689 529.13 825.297 527.673 824.608 526.352C823.919 525.03 822.949 523.876 821.766 522.97L817.929 488.842L796.558 494.683L806.963 525.399C805.575 527.49 805.001 530.017 805.35 532.503C805.699 534.989 806.947 537.26 808.857 538.887C810.767 540.513 813.206 541.382 815.713 541.327C818.22 541.273 820.619 540.301 822.457 538.593V538.593Z" fill="#FFB8B8"/>
<path id="Vector_21" d="M838.071 711.383L849.867 703.744L826.052 654.558L808.643 665.833L838.071 711.383Z" fill="#FFB8B8"/>
<path id="Vector_22" d="M879.699 699.979L842.628 723.986L833.364 709.646L856.647 694.567C858.458 693.395 860.481 692.591 862.602 692.201C864.723 691.812 866.9 691.844 869.008 692.297C871.117 692.749 873.115 693.614 874.89 694.84C876.665 696.066 878.181 697.63 879.352 699.442L879.699 699.979V699.979Z" fill="#2F2E41"/>
<path id="Vector_23" d="M733.614 716.382H747.661L754.346 662.132H733.614V716.382Z" fill="#FFB8B8"/>
<path id="Vector_24" d="M774.753 729.441H730.604V712.363H758.333C762.688 712.363 766.864 714.095 769.944 717.178C773.023 720.261 774.753 724.443 774.753 728.803V729.441V729.441Z" fill="#2F2E41"/>
<path id="Vector_25" d="M789.993 366.06C788.124 372.15 794.746 378.78 796.884 384.766C799.021 390.752 801.898 396.511 803.053 402.776C803.844 407.082 821.764 502.215 820.902 508.008C815.387 506.353 809.445 506.898 804.322 509.53C800.743 503.235 798.592 496.227 798.022 489.006C797.806 484.724 797.847 480.433 798.144 476.155C798.7 464.053 793.46 451.933 793.286 439.822C793.34 435.624 793.009 431.431 792.295 427.294C791.722 424.449 791.774 419.124 791.157 416.288C790.175 411.781 794.398 409.701 794.164 405.081L792.878 379.85C792.608 375.43 788.176 370.01 789.993 366.06Z" fill="#2F2E41"/>
<path id="Vector_26" d="M726.456 471.921C721.939 478.976 712.432 480.502 705.781 485.556C695.618 493.322 721.544 667.821 730.103 698.821C752.687 695.43 753.477 695.441 756.074 694.299C758.672 693.157 761.02 604.523 766.508 586.254C776.777 595.944 809.1 679.229 815.921 697.691C843.021 690.907 815.921 697.691 850.925 688.646C850.632 682.247 799.198 473.741 797.323 457.314C773.791 462.006 749.92 467.241 726.456 471.921Z" fill="#2F2E41"/>
<path id="Vector_27" d="M723.411 340.889C720.621 349.164 724.419 381.355 724.697 388.594C725.097 395.165 725.097 401.755 724.697 408.327C723.732 419.707 720.352 431.165 722.62 442.354C724.106 449.758 726.748 456.64 727.365 464.175C727.782 469.395 727.652 474.702 729.303 479.653C735.386 477.043 789.315 468.07 793.277 462.852C790.566 449.741 793.191 436.203 791.392 422.935C790.349 415.287 787.768 407.926 786.551 400.313C785.048 390.917 785.682 381.172 782.945 372.046C781.428 367.425 779.5 362.949 777.184 358.673C774.827 353.809 771.872 349.814 770.86 349.816C768.297 349.955 723.574 340.152 723.411 340.889Z" fill="#6C63FF"/>
<path id="Vector_28" d="M713.087 537.885C713.087 537.885 722.438 519.205 722.907 508.521C723.072 504.684 733.569 489.415 738.297 485.952C749.507 477.73 757.771 422.621 753.982 409.249C747.43 386.132 736.394 364.581 725.192 343.334C724.859 342.542 724.318 341.854 723.628 341.342C721.352 339.924 718.884 342.717 717.328 344.9C712.053 352.304 703.363 356.263 695.404 360.639C687.444 365.016 679.301 370.845 676.894 379.606C675.278 385.488 676.538 391.726 677.763 397.686C678.988 403.646 683.273 408.379 686.514 413.399C690.271 418.939 700.031 443.51 699.957 446.426C700.148 464.453 700.331 482.541 698.15 500.447C696.924 510.566 695.847 530.899 695.847 530.899L713.087 537.885Z" fill="#2F2E41"/>
<path id="Vector_29" d="M798.005 518.57C780.79 479.34 781.755 434.698 770.814 393.284C767.564 380.99 763.219 368.635 764.001 355.941C764.14 353.67 764.618 351.121 766.513 349.851C768.199 348.72 770.493 349.024 772.344 349.851C774.195 350.677 775.776 352.026 777.558 352.948C780.434 354.419 783.779 354.836 786.543 356.498C790.644 358.969 792.739 363.667 794.572 368.087C798.491 377.527 802.393 387.228 802.706 397.46C803.366 417.332 794.564 436.429 799.152 455.753C800.142 459.564 801.325 463.321 802.697 467.011C807.297 480.341 811.07 493.942 813.994 507.738C814.507 510.096 798.726 520.223 798.005 518.57Z" fill="#2F2E41"/>
<path id="Vector_30" d="M743.355 509.288C743.585 507.815 743.49 506.309 743.076 504.877C742.662 503.444 741.94 502.12 740.959 500.998C739.979 499.875 738.765 498.982 737.403 498.38C736.04 497.778 734.562 497.483 733.074 497.515L708.797 473.252L695.744 491.172L723.024 508.665C723.243 511.165 724.371 513.499 726.194 515.222C728.016 516.946 730.407 517.941 732.913 518.018C735.419 518.094 737.866 517.248 739.791 515.639C741.715 514.03 742.983 511.77 743.355 509.288V509.288Z" fill="#FFB8B8"/>
<path id="Vector_31" d="M666.006 454.187C666.406 457.832 696.99 496.278 713.609 508.826C712.644 503.875 725.67 487.727 729.885 485.204C719.353 475.256 697.347 452.185 696.62 450.924C694.239 446.321 696.62 440.823 698.697 436.064C705.241 420.934 708.325 403.768 704.128 387.82C702.547 381.834 699.783 375.839 694.752 372.159C692.553 370.558 689.581 369.462 687.14 370.68C686.117 371.269 685.229 372.066 684.533 373.02C676.738 382.512 665.71 451.481 666.006 454.187Z" fill="#2F2E41"/>
<path id="Vector_32" d="M737.268 334.768C738.911 327.788 730.605 312.768 732.248 305.788C733.361 301.061 744.463 304.274 747.054 300.168C749.645 296.063 753.985 292.736 758.835 292.682C764.41 292.619 769.896 296.76 775.178 294.97C780.517 293.161 782.224 285.839 779.863 280.714C777.503 275.588 772.417 272.322 767.392 269.763C758.836 265.405 748.873 262.222 739.716 265.105C734.18 266.848 729.551 270.625 725.072 274.319C720.989 277.687 716.837 281.13 713.982 285.59C708.391 294.325 708.728 306.096 713.507 315.302C718.285 324.509 726.992 331.265 736.587 335.187" fill="#2F2E41"/>
</g>
</g>
<g id="Group" opacity="0.1">
<path id="Vector_33" opacity="0.1" d="M494.044 723.446C494.044 721.971 494.044 720.489 494.044 719C493.985 720.148 493.985 721.299 494.044 722.447C494.034 722.78 494.044 723.113 494.044 723.446Z" fill="black"/>
</g>
<defs>
<clipPath id="clip0">
<rect width="908" height="733" fill="white"/>
</clipPath>
</defs>
</svg>
